<mxfile host="app.diagrams.net" modified="2022-07-20T11:13:04.950Z" agent="5.0 (Macintosh; Intel Mac OS X 10_15_7) AppleWebKit/537.36 (KHTML, like Gecko) Chrome/102.0.0.0 Safari/537.36" etag="YcosGdIngBWjbLfCN64B" version="19.0.3" type="github">
  <diagram id="qYz0HI4w7UAyQqI0Y7_R" name="Page-1">
    <mxGraphModel dx="1527" dy="873" grid="1" gridSize="10" guides="1" tooltips="1" connect="1" arrows="1" fold="1" page="1" pageScale="1" pageWidth="850" pageHeight="1100" math="0" shadow="0">
      <root>
        <mxCell id="0" />
        <mxCell id="1" parent="0" />
        <mxCell id="ITUb5vcEYmdRHlg09O4X-1" value="&lt;h1&gt;Functional Requirements&lt;/h1&gt;&lt;p&gt;After the user is selected from the Application process, we will send a stripe payment link for 1st subscription cost&lt;/p&gt;&lt;p&gt;Once the user paid, our team will take the data from Stripe and import it into our system using Locker&lt;/p&gt;&lt;p&gt;Our system should have the same subscription plan at our end&amp;nbsp;&lt;/p&gt;&lt;p&gt;The system will generate a signup code along with the user&#39;s data(email, mobile number)&lt;/p&gt;&lt;p&gt;We will maintain the user&#39;s purchased plan history and stamp all stripe relevant data at our end after the user successfully signed-up&lt;/p&gt;&lt;p&gt;&lt;br&gt;&lt;/p&gt;&lt;p&gt;&lt;br&gt;&lt;/p&gt;" style="text;html=1;strokeColor=#6c8ebf;fillColor=#dae8fc;spacing=5;spacingTop=-20;whiteSpace=wrap;overflow=hidden;rounded=0;" vertex="1" parent="1">
          <mxGeometry x="30" y="10" width="390" height="270" as="geometry" />
        </mxCell>
        <mxCell id="ITUb5vcEYmdRHlg09O4X-2" value="&lt;h1&gt;Non-Functional Requirements&lt;/h1&gt;&lt;p&gt;will update&lt;/p&gt;" style="text;html=1;strokeColor=#82b366;fillColor=#d5e8d4;spacing=5;spacingTop=-20;whiteSpace=wrap;overflow=hidden;rounded=0;" vertex="1" parent="1">
          <mxGeometry x="460" y="10" width="370" height="270" as="geometry" />
        </mxCell>
        <mxCell id="ITUb5vcEYmdRHlg09O4X-3" value="&lt;h1&gt;&lt;span style=&quot;background-color: initial;&quot;&gt;DB Entitiy&lt;/span&gt;&lt;br&gt;&lt;/h1&gt;&lt;div&gt;subscription_plan&lt;/div&gt;&lt;div&gt;&lt;br&gt;&lt;/div&gt;&lt;div&gt;signup/membership_code&lt;/div&gt;&lt;div&gt;&lt;br&gt;&lt;/div&gt;&lt;div&gt;user_subscription(active)&lt;/div&gt;&lt;div&gt;&lt;br&gt;&lt;/div&gt;&lt;div&gt;subscription_activities/logs(like extending end date, add free trial)&lt;br&gt;&lt;br&gt;user_order&lt;/div&gt;" style="text;html=1;spacing=5;spacingTop=-20;whiteSpace=wrap;overflow=hidden;rounded=0;fillColor=#f5f5f5;fontColor=#333333;strokeColor=#666666;" vertex="1" parent="1">
          <mxGeometry x="30" y="320" width="360" height="200" as="geometry" />
        </mxCell>
        <mxCell id="ITUb5vcEYmdRHlg09O4X-6" value="" style="edgeStyle=orthogonalEdgeStyle;rounded=0;orthogonalLoop=1;jettySize=auto;html=1;" edge="1" parent="1" source="ITUb5vcEYmdRHlg09O4X-4" target="ITUb5vcEYmdRHlg09O4X-5">
          <mxGeometry relative="1" as="geometry" />
        </mxCell>
        <mxCell id="ITUb5vcEYmdRHlg09O4X-4" value="After stripe Payment" style="rounded=0;whiteSpace=wrap;html=1;" vertex="1" parent="1">
          <mxGeometry x="40" y="730" width="120" height="60" as="geometry" />
        </mxCell>
        <mxCell id="ITUb5vcEYmdRHlg09O4X-8" value="" style="edgeStyle=orthogonalEdgeStyle;rounded=0;orthogonalLoop=1;jettySize=auto;html=1;" edge="1" parent="1" source="ITUb5vcEYmdRHlg09O4X-5" target="ITUb5vcEYmdRHlg09O4X-7">
          <mxGeometry relative="1" as="geometry" />
        </mxCell>
        <mxCell id="ITUb5vcEYmdRHlg09O4X-17" value="" style="edgeStyle=orthogonalEdgeStyle;rounded=0;orthogonalLoop=1;jettySize=auto;html=1;" edge="1" parent="1" source="ITUb5vcEYmdRHlg09O4X-5" target="ITUb5vcEYmdRHlg09O4X-16">
          <mxGeometry relative="1" as="geometry" />
        </mxCell>
        <mxCell id="ITUb5vcEYmdRHlg09O4X-5" value="Locker import + code generate" style="whiteSpace=wrap;html=1;rounded=0;" vertex="1" parent="1">
          <mxGeometry x="220" y="730" width="120" height="60" as="geometry" />
        </mxCell>
        <mxCell id="ITUb5vcEYmdRHlg09O4X-10" value="" style="edgeStyle=orthogonalEdgeStyle;rounded=0;orthogonalLoop=1;jettySize=auto;html=1;entryX=0;entryY=0.5;entryDx=0;entryDy=0;" edge="1" parent="1" source="ITUb5vcEYmdRHlg09O4X-7" target="ITUb5vcEYmdRHlg09O4X-9">
          <mxGeometry relative="1" as="geometry" />
        </mxCell>
        <mxCell id="ITUb5vcEYmdRHlg09O4X-26" value="" style="edgeStyle=orthogonalEdgeStyle;rounded=0;orthogonalLoop=1;jettySize=auto;html=1;" edge="1" parent="1" source="ITUb5vcEYmdRHlg09O4X-7" target="ITUb5vcEYmdRHlg09O4X-25">
          <mxGeometry relative="1" as="geometry" />
        </mxCell>
        <mxCell id="ITUb5vcEYmdRHlg09O4X-7" value="User Signup" style="whiteSpace=wrap;html=1;rounded=0;" vertex="1" parent="1">
          <mxGeometry x="420" y="730" width="120" height="60" as="geometry" />
        </mxCell>
        <mxCell id="ITUb5vcEYmdRHlg09O4X-15" value="" style="edgeStyle=orthogonalEdgeStyle;rounded=0;orthogonalLoop=1;jettySize=auto;html=1;" edge="1" parent="1" source="ITUb5vcEYmdRHlg09O4X-9" target="ITUb5vcEYmdRHlg09O4X-14">
          <mxGeometry relative="1" as="geometry" />
        </mxCell>
        <mxCell id="ITUb5vcEYmdRHlg09O4X-19" value="" style="edgeStyle=orthogonalEdgeStyle;rounded=0;orthogonalLoop=1;jettySize=auto;html=1;" edge="1" parent="1" source="ITUb5vcEYmdRHlg09O4X-9" target="ITUb5vcEYmdRHlg09O4X-18">
          <mxGeometry relative="1" as="geometry" />
        </mxCell>
        <mxCell id="ITUb5vcEYmdRHlg09O4X-9" value="Onbaording + ClubPass assign" style="whiteSpace=wrap;html=1;rounded=0;" vertex="1" parent="1">
          <mxGeometry x="620" y="730" width="120" height="60" as="geometry" />
        </mxCell>
        <mxCell id="ITUb5vcEYmdRHlg09O4X-14" value="Assign club pass&lt;br&gt;Extend subscription End date/Validity" style="ellipse;whiteSpace=wrap;html=1;rounded=0;" vertex="1" parent="1">
          <mxGeometry x="620" y="590" width="120" height="60" as="geometry" />
        </mxCell>
        <mxCell id="ITUb5vcEYmdRHlg09O4X-16" value="Map data and store at our end" style="ellipse;whiteSpace=wrap;html=1;rounded=0;" vertex="1" parent="1">
          <mxGeometry x="220" y="590" width="120" height="60" as="geometry" />
        </mxCell>
        <mxCell id="ITUb5vcEYmdRHlg09O4X-21" value="" style="edgeStyle=orthogonalEdgeStyle;rounded=0;orthogonalLoop=1;jettySize=auto;html=1;" edge="1" parent="1" source="ITUb5vcEYmdRHlg09O4X-18" target="ITUb5vcEYmdRHlg09O4X-20">
          <mxGeometry relative="1" as="geometry" />
        </mxCell>
        <mxCell id="ITUb5vcEYmdRHlg09O4X-22" value="Yes" style="edgeLabel;html=1;align=center;verticalAlign=middle;resizable=0;points=[];" vertex="1" connectable="0" parent="ITUb5vcEYmdRHlg09O4X-21">
          <mxGeometry x="-0.2" y="-1" relative="1" as="geometry">
            <mxPoint y="1" as="offset" />
          </mxGeometry>
        </mxCell>
        <mxCell id="ITUb5vcEYmdRHlg09O4X-18" value="Use clubPass" style="rhombus;whiteSpace=wrap;html=1;rounded=0;" vertex="1" parent="1">
          <mxGeometry x="840" y="720" width="80" height="80" as="geometry" />
        </mxCell>
        <mxCell id="ITUb5vcEYmdRHlg09O4X-20" value="Manage ClubPasses" style="whiteSpace=wrap;html=1;rounded=0;" vertex="1" parent="1">
          <mxGeometry x="980" y="730" width="120" height="60" as="geometry" />
        </mxCell>
        <mxCell id="ITUb5vcEYmdRHlg09O4X-25" value="Link user a/c with subscription&amp;nbsp;" style="ellipse;whiteSpace=wrap;html=1;rounded=0;" vertex="1" parent="1">
          <mxGeometry x="420" y="590" width="120" height="60" as="geometry" />
        </mxCell>
      </root>
    </mxGraphModel>
  </diagram>
</mxfile>
